<svg width="458" height="215" viewBox="0 0 458 215" fill="none" xmlns="http://www.w3.org/2000/svg">
<g clip-path="url(#clip0)">
<path d="M136.256 177.024C134.682 190.184 128.892 202.224 122.715 213.821C122.511 214.216 122.301 214.605 122.085 215H57.888C56.5896 214.64 55.308 214.246 54.0317 213.821C46.7808 211.466 39.9354 207.874 33.7615 203.184C10.1433 185.033 1.05503 150.735 5.16001 120.002C7.7125 100.908 15.5685 81.4136 30.8665 71.13C38.9437 65.6906 49.319 63.9227 58.6172 65.944C58.8605 65.9912 59.1035 66.0501 59.352 66.1031C67.3518 68.0243 74.4786 72.7978 78.534 80.4883C85.8265 94.3078 81.4841 111.428 77.8987 126.809C74.3241 142.19 72.3847 160.6 82.7603 171.944C79.3349 161.189 82.7161 148.36 90.8983 141.088C97.0804 135.601 105.688 133.545 113.539 135.248C114.29 135.419 115.03 135.613 115.76 135.849C117.522 136.399 119.221 137.158 120.826 138.112C133.063 145.402 138.019 162.191 136.256 177.024Z" fill="#F2F2F2"/>
<path d="M98.191 213.821C99.9698 214.263 101.754 214.652 103.55 215H93.843C92.5721 214.635 91.3069 214.246 90.0531 213.821C87.2961 212.902 84.5816 211.847 81.9095 210.657C71.1916 205.86 61.3188 198.658 53.8494 189.076C50.1964 184.433 47.2133 179.235 44.9988 173.653C42.5975 167.345 41.0714 160.696 40.4687 153.917C39.115 140.009 40.4962 125.718 43.0762 112.058C45.7387 97.8998 50.0366 84.1483 55.8715 71.1182C56.5732 69.5565 57.2988 68.0046 58.0483 66.4626C58.0998 66.3356 58.1779 66.2229 58.2765 66.133C58.3751 66.0431 58.4916 65.9785 58.6172 65.944C58.8722 65.8912 59.1365 65.9484 59.352 66.1031C59.6108 66.2614 59.8026 66.5197 59.8879 66.8246C59.9733 67.1294 59.9456 67.4576 59.8106 67.7414C53.7945 80.256 49.2341 93.5077 46.2308 107.202C43.2917 120.562 41.6233 134.54 42.1922 148.277C42.7336 161.113 45.8774 173.736 53.0096 184.232C59.5233 193.814 68.5175 201.369 78.4676 206.514C84.7655 209.728 91.3813 212.179 98.191 213.821V213.821Z" fill="white"/>
<path d="M119.494 215H116.632C116.312 214.611 116.003 214.216 115.699 213.821C109.18 205.373 104.764 195.308 102.859 184.556C100.546 171.139 102.345 157.283 107.992 145.042C109.567 141.61 111.423 138.332 113.538 135.248C114.29 135.419 115.03 135.613 115.759 135.849C110.195 143.713 106.453 152.868 104.837 162.569C103.396 171.658 103.875 180.976 106.24 189.843C108.604 198.71 112.795 206.902 118.505 213.821C118.826 214.216 119.157 214.611 119.494 215Z" fill="white"/>
<path d="M377.3 204.977C377.716 208.451 379.244 211.628 380.874 214.689C380.928 214.793 380.983 214.896 381.04 215H397.983C398.325 214.905 398.664 214.801 399.001 214.689C400.914 214.067 402.721 213.119 404.35 211.882C410.583 207.091 412.982 198.039 411.899 189.928C411.225 184.889 409.152 179.744 405.114 177.03C402.922 175.606 400.306 175.117 397.79 175.661C397.726 175.674 397.662 175.689 397.596 175.703C396.549 175.919 395.557 176.369 394.684 177.024C393.812 177.678 393.079 178.522 392.534 179.5C390.609 183.147 391.755 187.665 392.702 191.725C393.645 195.784 394.157 200.643 391.419 203.637C391.82 202.385 391.901 201.041 391.655 199.744C391.408 198.448 390.842 197.244 390.015 196.258C389.188 195.272 388.129 194.538 386.948 194.133C385.767 193.728 384.507 193.665 383.296 193.952C383.097 193.997 382.902 194.048 382.709 194.111C382.244 194.256 381.796 194.456 381.372 194.708C378.143 196.632 376.835 201.063 377.3 204.977Z" fill="#F2F2F2"/>
<path d="M387.346 214.689C386.877 214.805 386.406 214.908 385.932 215H388.494C388.829 214.903 389.163 214.801 389.494 214.689C390.221 214.446 390.938 214.168 391.643 213.854C394.503 212.615 397.043 210.662 399.049 208.158C400.013 206.933 400.8 205.561 401.384 204.088C402.018 202.423 402.421 200.668 402.58 198.879C402.871 195.181 402.639 191.457 401.892 187.832C401.189 184.095 400.055 180.466 398.515 177.027C398.33 176.615 398.138 176.205 397.94 175.798C397.927 175.765 397.906 175.735 397.88 175.711C397.854 175.687 397.823 175.67 397.79 175.661C397.723 175.647 397.653 175.662 397.596 175.703C397.528 175.745 397.477 175.813 397.455 175.894C397.432 175.974 397.44 176.061 397.475 176.136C399.063 179.439 400.267 182.936 401.059 186.55C401.876 190.095 402.234 193.742 402.125 197.391C402.067 200.784 401.074 204.084 399.27 206.88C397.516 209.397 395.209 211.417 392.551 212.76C390.889 213.609 389.143 214.255 387.346 214.689Z" fill="white"/>
<path d="M381.724 215H382.479C382.564 214.897 382.645 214.793 382.725 214.689C384.446 212.459 385.611 209.803 386.114 206.965C386.725 203.424 386.25 199.767 384.759 196.537C384.344 195.631 383.854 194.766 383.296 193.952C383.097 193.997 382.902 194.048 382.709 194.111C384.178 196.186 385.166 198.602 385.592 201.162C385.972 203.561 385.846 206.02 385.222 208.361C384.598 210.701 383.492 212.863 381.985 214.689C381.9 214.793 381.813 214.897 381.724 215Z" fill="white"/>
<path d="M224.586 125.235H171.559L170.997 107.844C170.972 107.09 171.101 106.339 171.375 105.644C171.649 104.948 172.06 104.324 172.582 103.814C173.103 103.305 173.722 102.922 174.395 102.692C175.069 102.462 175.781 102.39 176.483 102.482L207.341 106.512H207.345C211.92 106.525 216.303 108.472 219.535 111.926C222.766 115.38 224.583 120.06 224.586 124.94V125.235Z" fill="url(#paint0_linear)"/>
<path d="M200.951 63.5454H163.968C163.476 63.5453 162.989 63.6485 162.534 63.8492C162.08 64.0499 161.667 64.3442 161.319 64.7152C160.971 65.0862 160.696 65.5266 160.507 66.0114C160.319 66.4961 160.222 67.0157 160.223 67.5404V106.99C160.222 107.515 160.319 108.035 160.507 108.519C160.696 109.004 160.971 109.445 161.319 109.816C161.667 110.187 162.08 110.481 162.534 110.682C162.989 110.882 163.476 110.986 163.968 110.985H200.951C201.443 110.986 201.93 110.882 202.385 110.682C202.839 110.481 203.252 110.187 203.6 109.816C203.948 109.445 204.224 109.004 204.412 108.519C204.6 108.035 204.697 107.515 204.697 106.99V67.5404C204.697 67.0157 204.6 66.4961 204.412 66.0114C204.224 65.5266 203.948 65.0862 203.6 64.7152C203.252 64.3442 202.839 64.0499 202.385 63.8492C201.93 63.6485 201.443 63.5453 200.951 63.5454V63.5454Z" fill="#00252E"/>
<path d="M192.622 93.0448L175.161 96.6721C174.125 96.8859 173.052 96.6528 172.177 96.0238C171.302 95.3948 170.697 94.4214 170.494 93.317L169.152 85.9646C168.951 84.8598 169.17 83.7152 169.759 82.782C170.349 81.8488 171.262 81.2032 172.297 80.9869L189.759 77.3597C190.794 77.1458 191.867 77.379 192.742 78.0079C193.617 78.6369 194.222 79.6104 194.425 80.7147L195.767 88.0671C195.968 89.172 195.749 90.3166 195.16 91.2497C194.57 92.1829 193.657 92.8285 192.622 93.0448Z" fill="url(#paint1_linear)"/>
<path d="M189.129 84.3587L175.803 87.1268C175.559 87.1775 175.306 87.1227 175.1 86.9747C174.894 86.8267 174.752 86.5974 174.705 86.3374C174.657 86.0774 174.708 85.8079 174.847 85.5883C174.986 85.3686 175.201 85.2168 175.445 85.1662L188.771 82.3981C189.014 82.3474 189.267 82.4022 189.473 82.5502C189.679 82.6983 189.821 82.9275 189.869 83.1875C189.916 83.4475 189.865 83.7169 189.726 83.9366C189.587 84.1562 189.372 84.3081 189.129 84.3587V84.3587Z" fill="white"/>
<path d="M186.538 88.4578L179.646 89.8896C179.402 89.9402 179.149 89.8855 178.943 89.7375C178.737 89.5894 178.595 89.3602 178.548 89.1002C178.5 88.8402 178.551 88.5707 178.69 88.3511C178.829 88.1314 179.044 87.9796 179.288 87.929L186.18 86.4972C186.301 86.4721 186.425 86.4726 186.546 86.4987C186.666 86.5248 186.781 86.576 186.883 86.6493C186.985 86.7226 187.072 86.8166 187.14 86.926C187.208 87.0353 187.255 87.1579 187.278 87.2866C187.302 87.4153 187.301 87.5477 187.277 87.6763C187.252 87.8048 187.205 87.9269 187.136 88.0357C187.067 88.1445 186.979 88.2377 186.876 88.3101C186.774 88.3826 186.659 88.4328 186.538 88.4578Z" fill="white"/>
<path d="M204.697 67.5404V72.7837H160.223V67.5404C160.222 67.0157 160.319 66.4961 160.507 66.0114C160.696 65.5266 160.971 65.0862 161.319 64.7152C161.667 64.3442 162.08 64.0499 162.534 63.8492C162.989 63.6485 163.476 63.5453 163.968 63.5454H200.951C201.443 63.5453 201.93 63.6485 202.385 63.8492C202.839 64.0499 203.252 64.3442 203.6 64.7152C203.948 65.0862 204.224 65.5266 204.412 66.0114C204.6 66.4961 204.697 67.0157 204.697 67.5404Z" fill="#00252E"/>
<path d="M293.507 74.4257C293.25 73.5416 292.815 72.7283 292.232 72.0431C291.648 71.358 290.931 70.8175 290.131 70.4599C289.331 70.1023 288.467 69.9362 287.6 69.9733C286.733 70.0105 285.884 70.2499 285.113 70.6748L234.232 51.2021L231.991 64.7607L282.71 79.6383C283.465 80.9722 284.653 81.9645 286.048 82.4269C287.443 82.8894 288.948 82.7899 290.279 82.1474C291.61 81.5049 292.674 80.3639 293.269 78.9408C293.863 77.5176 293.948 75.9111 293.507 74.4257V74.4257Z" fill="#FFB8B8"/>
<path opacity="0.2" d="M293.507 74.4257C293.25 73.5416 292.815 72.7283 292.232 72.0431C291.648 71.358 290.931 70.8175 290.131 70.4599C289.331 70.1023 288.467 69.9362 287.6 69.9733C286.733 70.0105 285.884 70.2499 285.113 70.6748L234.232 51.2021L231.991 64.7607L282.71 79.6383C283.465 80.9722 284.653 81.9645 286.048 82.4269C287.443 82.8894 288.948 82.7899 290.279 82.1474C291.61 81.5049 292.674 80.3639 293.269 78.9408C293.863 77.5176 293.948 75.9111 293.507 74.4257V74.4257Z" fill="black"/>
<path d="M243.263 53.6729L238.459 67.0624C238.322 67.4433 238.11 67.7884 237.837 68.074C237.564 68.3597 237.236 68.5792 236.877 68.7177C236.517 68.8561 236.133 68.9103 235.752 68.8764C235.371 68.8425 235.001 68.7214 234.668 68.5214L222.991 61.5107C221.168 60.7534 219.701 59.2559 218.911 57.3465C218.121 55.4371 218.074 53.2716 218.778 51.3247C219.483 49.3779 220.883 47.8085 222.671 46.9608C224.458 46.113 226.488 46.056 228.315 46.8022L241.355 49.8871C241.728 49.9755 242.079 50.1488 242.384 50.395C242.689 50.6412 242.941 50.9546 243.122 51.3139C243.303 51.6732 243.409 52.0699 243.434 52.477C243.458 52.884 243.4 53.292 243.263 53.6729V53.6729Z" fill="#6C63FF"/>
<path d="M297.512 86.8235L279.28 95.6632L281.674 105.276C286.296 123.838 287.523 143.176 285.287 162.233V162.233L298.617 165.203L309.666 135.147L305.799 100.967L297.512 86.8235Z" fill="url(#paint2_linear)"/>
<path d="M333.285 131.317C321.306 131.317 311.544 140.606 311.07 152.238H355.499C355.025 140.606 345.263 131.317 333.285 131.317Z" fill="#00252E"/>
<path d="M323.96 133.322C323.336 80.8144 295.302 85.645 295.302 85.645C295.302 85.645 295.827 101.989 296.078 102.497C313.943 138.551 284.46 180.819 246.931 173.043C246.223 172.897 245.543 172.748 244.891 172.597C240.136 171.538 235.937 168.587 233.15 164.343C230.362 160.1 229.194 154.883 229.884 149.754C233.581 118.086 215.194 118.647 215.194 118.647H188.307L174.344 105.242C173.851 104.769 173.257 104.432 172.614 104.26C171.97 104.089 171.298 104.088 170.654 104.257C170.01 104.427 169.415 104.763 168.921 105.234C168.427 105.706 168.049 106.3 167.82 106.964L166.023 112.164C166.023 112.164 139.505 115.111 141.715 142.809H149.913C149.894 143.596 149.923 144.383 150.002 145.166L211.189 144.635C214.775 144.604 217.941 147.704 217.956 151.53C217.96 152.462 217.787 153.384 217.449 154.243C217.11 155.102 216.613 155.879 215.987 156.528C215.36 157.177 214.618 157.684 213.803 158.02C212.989 158.356 212.119 158.513 211.246 158.482L201.382 158.131C198.343 172.569 205.802 182.293 214.02 188.407C221.757 194.08 230.938 197.088 240.327 197.026H267.126C301.932 197.026 308.009 165.792 308.009 165.792C326.241 157.542 323.96 133.322 323.96 133.322Z" fill="#00252E"/>
<path d="M331.627 214.116C348.79 214.116 362.704 199.275 362.704 180.967C362.704 162.659 348.79 147.818 331.627 147.818C314.464 147.818 300.551 162.659 300.551 180.967C300.551 199.275 314.464 214.116 331.627 214.116Z" fill="#00252E"/>
<path d="M331.627 189.092C335.834 189.092 339.244 185.454 339.244 180.967C339.244 176.48 335.834 172.842 331.627 172.842C327.421 172.842 324.01 176.48 324.01 180.967C324.01 185.454 327.421 189.092 331.627 189.092Z" fill="white"/>
<path d="M174.725 214.116C194.482 214.116 210.498 197.032 210.498 175.958C210.498 154.883 194.482 137.799 174.725 137.799C154.968 137.799 138.952 154.883 138.952 175.958C138.952 197.032 154.968 214.116 174.725 214.116Z" fill="#00252E"/>
<path d="M174.725 185.31C179.567 185.31 183.493 181.123 183.493 175.958C183.493 170.792 179.567 166.605 174.725 166.605C169.883 166.605 165.957 170.792 165.957 175.958C165.957 181.123 169.883 185.31 174.725 185.31Z" fill="white"/>
<path d="M279.332 98.2752L272.772 79.27C272.431 78.2795 272.275 77.2269 272.314 76.1722C272.354 75.1176 272.588 74.0816 273.003 73.1233C273.418 72.1651 274.005 71.3034 274.732 70.5874C275.46 69.8715 276.312 69.3153 277.24 68.9507L296.046 61.5658C297.68 60.924 299.417 60.6318 301.156 60.7058C302.896 60.7798 304.605 61.2187 306.186 61.9972C307.766 62.7758 309.188 63.8788 310.369 65.2434C311.55 66.6079 312.468 68.2072 313.069 69.95C313.612 71.5143 313.889 73.1691 313.887 74.8369C313.88 76.9547 313.431 79.0442 312.572 80.9535C311.713 82.8628 310.466 84.544 308.922 85.8748C307.806 86.8295 306.552 87.5837 305.209 88.1078L279.332 98.2752Z" fill="#3F3D56"/>
<path d="M313.611 74.8368C313.61 76.9114 313.172 78.9593 312.331 80.8297C311.489 82.7001 310.265 84.3456 308.749 85.6449C306.423 84.9904 304.258 83.8034 302.406 82.1663C300.553 80.5292 299.057 78.4814 298.021 76.1652C296.985 73.849 296.435 71.32 296.408 68.7539C296.381 66.1879 296.879 63.6464 297.866 61.3061C299.761 60.8665 301.724 60.8853 303.611 61.3609C305.498 61.8365 307.262 62.757 308.772 64.0548C310.282 65.3525 311.501 66.9945 312.338 68.8603C313.175 70.7261 313.61 72.7682 313.611 74.8368V74.8368Z" fill="url(#paint3_linear)"/>
<path d="M146.411 146.639C150.682 146.639 154.145 142.154 154.145 136.621C154.145 131.088 150.682 126.602 146.411 126.602C142.139 126.602 138.676 131.088 138.676 136.621C138.676 142.154 142.139 146.639 146.411 146.639Z" fill="url(#paint4_linear)"/>
<path d="M248.652 172.083H255.425L258.648 153.345L248.651 153.346L248.652 172.083Z" fill="#FFB8B8"/>
<path d="M246.924 169.725L260.263 169.724H260.264C261.38 169.724 262.485 169.959 263.517 170.414C264.548 170.87 265.485 171.538 266.274 172.38C267.064 173.222 267.69 174.221 268.117 175.322C268.544 176.422 268.764 177.601 268.764 178.791V179.086L246.925 179.087L246.924 169.725Z" fill="#2F2E41"/>
<path d="M256.514 164.393C256.435 164.393 256.356 164.389 256.276 164.381L246.903 163.653C246.524 163.615 246.158 163.485 245.833 163.273C245.509 163.061 245.234 162.772 245.031 162.429C244.827 162.085 244.701 161.697 244.66 161.293C244.62 160.889 244.667 160.481 244.798 160.099L257.343 130.036C257.433 129.768 257.469 129.483 257.45 129.199C257.432 128.915 257.358 128.638 257.234 128.386C257.111 128.131 256.938 127.907 256.728 127.728C256.517 127.549 256.274 127.42 256.013 127.349C250.114 125.704 234.979 121.325 221.878 116.2C216.264 114.005 212.729 110.832 211.37 106.77C209.578 101.415 212.229 96.5315 212.343 96.3266L212.432 96.166L224.76 97.3613L238.125 98.5739L267.413 115.327C269.868 116.743 271.732 119.092 272.635 121.908C273.537 124.724 273.413 127.8 272.285 130.522L258.782 162.821C258.587 163.289 258.269 163.686 257.866 163.965C257.464 164.244 256.994 164.393 256.514 164.393Z" fill="#00252E"/>
<path d="M226.904 37.8821C234.398 37.8821 240.473 31.4017 240.473 23.4078C240.473 15.4139 234.398 8.93359 226.904 8.93359C219.409 8.93359 213.334 15.4139 213.334 23.4078C213.334 31.4017 219.409 37.8821 226.904 37.8821Z" fill="#FFB8B8"/>
<path d="M244.785 173.852H251.558L254.781 155.113L244.784 155.114L244.785 173.852Z" fill="#FFB8B8"/>
<path d="M243.057 171.493L256.396 171.492H256.396C257.513 171.492 258.618 171.727 259.649 172.182C260.681 172.638 261.618 173.306 262.407 174.148C263.196 174.99 263.823 175.989 264.25 177.09C264.677 178.19 264.897 179.369 264.897 180.56V180.854L243.057 180.855L243.057 171.493Z" fill="#2F2E41"/>
<path d="M252.647 166.161C252.568 166.161 252.488 166.156 252.409 166.148L243.035 165.42C242.656 165.383 242.29 165.253 241.966 165.041C241.641 164.829 241.367 164.54 241.163 164.196C240.96 163.853 240.833 163.464 240.793 163.061C240.753 162.657 240.8 162.249 240.931 161.867L253.476 131.803C253.565 131.535 253.602 131.251 253.583 130.967C253.564 130.683 253.491 130.406 253.367 130.154C253.244 129.899 253.071 129.675 252.86 129.496C252.65 129.317 252.406 129.188 252.146 129.117C246.247 127.472 231.112 123.093 218.01 117.968C212.397 115.773 208.862 112.6 207.503 108.538C205.711 103.183 208.362 98.2993 208.475 98.0944L208.564 97.9338L220.893 99.1292L234.258 100.342L263.546 117.095C266 118.51 267.864 120.86 268.767 123.676C269.67 126.492 269.545 129.567 268.418 132.29L254.915 164.589C254.72 165.057 254.402 165.454 253.999 165.733C253.596 166.012 253.127 166.16 252.647 166.161Z" fill="#00252E"/>
<path d="M231.088 46.0895L216.724 40.7856C216.724 40.7856 207.707 48.1757 212.039 66.5085C214.3 75.9689 213.641 85.9551 210.16 94.9844C209.741 96.1016 209.258 97.1902 208.713 98.2441C208.713 98.2441 224.735 118.87 239.652 103.548L233.851 73.7874C233.851 73.7874 242.967 54.0453 231.088 46.0895Z" fill="url(#paint5_linear)"/>
<path d="M228.588 38.3743C226.657 35.2908 225.133 31.0152 227.259 28.0813C229.358 25.1853 233.498 25.612 236.712 24.3305C241.19 22.5457 243.786 16.935 242.976 11.9103C242.167 6.88557 238.385 2.72023 233.88 1.01591C229.376 -0.688412 224.296 -0.134126 219.885 1.82851C214.454 4.24453 209.796 8.91816 207.842 14.8384C205.889 20.7587 206.933 27.8671 210.986 32.4175C215.33 37.2961 222.149 38.5963 228.456 38.5174" fill="#2F2E41"/>
<path d="M215.966 12.0714C213.532 14.1846 209.82 13.246 207.207 11.3914C204.595 9.53677 202.475 6.89592 199.649 5.44183C194.666 2.87833 188.642 4.58247 183.792 7.422C178.942 10.2615 174.644 14.1844 169.521 16.4127C164.398 18.641 157.862 18.7512 153.983 14.5436C153.028 17.4936 152.95 20.686 153.759 23.6851C154.568 26.6841 156.225 29.3439 158.504 31.3014C160.782 33.2589 163.572 34.4189 166.491 34.623C169.411 34.8272 172.318 34.0655 174.817 32.442C180.429 28.7951 183.53 21.1486 189.825 19.1357C193.309 18.0218 197.049 18.9189 200.57 19.8906C204.091 20.8623 207.762 21.9122 211.315 21.085C214.868 20.2578 218.192 16.8519 217.74 13.0027L215.966 12.0714Z" fill="#2F2E41"/>
<path d="M292.832 73.8362C292.475 72.9926 291.949 72.2429 291.291 71.6397C290.633 71.0365 289.858 70.5946 289.023 70.345C288.187 70.0955 287.311 70.0444 286.455 70.1953C285.599 70.3463 284.784 70.6956 284.068 71.2187L231.324 58.5913L230.668 72.3412L282.72 80.4299C283.624 81.6543 284.917 82.4827 286.355 82.758C287.793 83.0334 289.275 82.7365 290.522 81.9237C291.768 81.111 292.692 79.8388 293.117 78.3482C293.543 76.8576 293.442 75.2522 292.832 73.8362V73.8362Z" fill="#FFB8B8"/>
<path d="M240.572 59.8544L237.352 73.7739C237.261 74.17 237.09 74.5403 236.852 74.8597C236.614 75.1791 236.315 75.4401 235.974 75.6248C235.633 75.8095 235.259 75.9137 234.877 75.9303C234.494 75.9468 234.113 75.8753 233.76 75.7207L221.361 70.3004C219.463 69.7901 217.832 68.4974 216.826 66.7061C215.821 64.9147 215.522 62.771 215.997 60.7453C216.471 58.7196 217.68 56.9774 219.357 55.9009C221.034 54.8245 223.043 54.5018 224.943 55.0035L238.24 56.3486C238.621 56.3873 238.989 56.513 239.32 56.7172C239.651 56.9214 239.937 57.1993 240.158 57.532C240.38 57.8647 240.531 58.2444 240.602 58.6452C240.674 59.0459 240.663 59.4584 240.572 59.8544V59.8544Z" fill="url(#paint6_linear)"/>
<path d="M286.739 84.7609C288.875 84.7609 290.606 82.914 290.606 80.6357C290.606 78.3574 288.875 76.5105 286.739 76.5105C284.603 76.5105 282.872 78.3574 282.872 80.6357C282.872 82.914 284.603 84.7609 286.739 84.7609Z" fill="#6C63FF"/>
<path d="M458 214.411C458 214.567 457.941 214.716 457.838 214.827C457.734 214.937 457.594 214.999 457.448 215H0.552473C0.405948 215 0.265424 214.938 0.161815 214.827C0.0582064 214.717 0 214.567 0 214.411C0 214.254 0.0582064 214.104 0.161815 213.994C0.265424 213.883 0.405948 213.821 0.552473 213.821H457.448C457.594 213.822 457.734 213.884 457.838 213.994C457.941 214.105 458 214.254 458 214.411V214.411Z" fill="#3F3D56"/>
</g>
<defs>
<linearGradient id="paint0_linear" x1="197.79" y1="102.443" x2="197.79" y2="125.235" gradientUnits="userSpaceOnUse">
<stop offset="0.0572917" stop-color="#0092FA"/>
<stop offset="0.770833" stop-color="#0E64E4"/>
</linearGradient>
<linearGradient id="paint1_linear" x1="182.46" y1="77.2822" x2="182.46" y2="96.7495" gradientUnits="userSpaceOnUse">
<stop offset="0.0572917" stop-color="#0092FA"/>
<stop offset="0.770833" stop-color="#0E64E4"/>
</linearGradient>
<linearGradient id="paint2_linear" x1="294.473" y1="86.8235" x2="294.473" y2="165.203" gradientUnits="userSpaceOnUse">
<stop offset="0.0572917" stop-color="#0092FA"/>
<stop offset="0.770833" stop-color="#0E64E4"/>
</linearGradient>
<linearGradient id="paint3_linear" x1="305.009" y1="60.9897" x2="305.009" y2="85.6449" gradientUnits="userSpaceOnUse">
<stop offset="0.0572917" stop-color="#0092FA"/>
<stop offset="0.770833" stop-color="#0E64E4"/>
</linearGradient>
<linearGradient id="paint4_linear" x1="146.411" y1="126.602" x2="146.411" y2="146.639" gradientUnits="userSpaceOnUse">
<stop offset="0.0572917" stop-color="#0092FA"/>
<stop offset="0.770833" stop-color="#0E64E4"/>
</linearGradient>
<linearGradient id="paint5_linear" x1="224.183" y1="40.7856" x2="224.183" y2="109.211" gradientUnits="userSpaceOnUse">
<stop offset="0.0572917" stop-color="#0092FA"/>
<stop offset="0.770833" stop-color="#0E64E4"/>
</linearGradient>
<linearGradient id="paint6_linear" x1="228.213" y1="54.7725" x2="228.213" y2="75.9326" gradientUnits="userSpaceOnUse">
<stop offset="0.0572917" stop-color="#0092FA"/>
<stop offset="0.770833" stop-color="#0E64E4"/>
</linearGradient>
<clipPath id="clip0">
<rect width="458" height="215" fill="white"/>
</clipPath>
</defs>
</svg>
