<svg width="435" height="319" viewBox="0 0 435 319" fill="none" xmlns="http://www.w3.org/2000/svg">
<path d="M357.53 319C396.661 319 428.384 314.914 428.384 309.873C428.384 304.833 396.661 300.746 357.53 300.746C318.398 300.746 286.675 304.833 286.675 309.873C286.675 314.914 318.398 319 357.53 319Z" fill="#E6E6E6"/>
<path d="M361.438 278.095C361.438 278.095 365.245 291.112 367.783 294.472C370.322 297.831 372.437 303.29 371.168 304.129C369.899 304.969 367.36 315.047 370.745 315.467C374.129 315.887 381.743 304.549 382.167 300.77C382.59 296.991 384.282 283.554 384.282 283.554C384.282 283.554 387.243 271.797 382.59 270.957C377.936 270.117 370.745 269.698 370.745 269.698L361.438 278.095Z" fill="url(#paint0_linear)"/>
<path d="M343.671 291.952C343.671 291.952 338.171 306.229 336.902 307.069C335.633 307.909 330.98 315.467 340.286 315.467C349.593 315.467 354.669 312.947 354.669 312.947L357.631 309.588C357.631 309.588 357.631 300.77 356.785 299.51C355.939 298.251 356.785 291.952 356.785 291.952H343.671Z" fill="url(#paint1_linear)"/>
<path d="M306.021 161.363C306.021 161.363 299.252 206.712 305.175 221.409C311.097 236.105 317.02 240.304 317.02 240.304L361.861 281.875C361.861 281.875 375.821 274.736 374.552 270.117C374.552 270.117 371.591 268.438 371.168 267.178C370.745 265.918 365.245 265.499 365.245 265.499C365.245 265.499 362.707 262.559 362.707 260.88C362.707 259.2 340.709 229.387 333.518 227.288C333.518 227.288 329.71 222.669 330.134 221.829C330.557 220.989 328.864 218.05 328.864 218.05L333.095 201.674L359.746 197.475C359.746 197.475 370.745 158.844 361.438 155.904C352.131 152.965 306.021 161.363 306.021 161.363Z" fill="#00252E"/>
<path d="M358.9 190.756L359.746 197.475C359.746 197.475 359.746 215.11 358.9 216.79C358.054 218.47 357.631 220.989 358.9 222.669C360.169 224.348 362.284 228.547 361.438 230.227C360.592 231.906 363.13 279.355 359.746 282.714C356.362 286.074 357.631 290.273 358.054 290.693C358.477 291.112 357.631 292.792 357.631 292.792C357.631 292.792 340.286 295.731 341.555 292.792C342.825 289.853 342.825 288.173 343.671 287.333C344.517 286.494 343.671 285.234 343.671 285.234C343.671 285.234 344.94 271.797 343.671 270.957C342.402 270.117 338.594 229.807 338.594 229.387C338.594 228.967 337.325 228.127 337.325 226.448C337.325 224.768 337.325 219.309 335.21 218.47C333.095 217.63 333.518 197.055 333.518 197.055L358.9 190.756Z" fill="#00252E"/>
<path d="M328.864 40.8517C328.864 40.8517 330.557 53.4487 335.633 55.9681C340.709 58.4875 344.094 59.7472 344.094 59.7472L339.863 74.4437L338.171 87.0408H318.712L308.136 78.6428L311.52 64.786L313.212 62.2666C313.212 62.2666 315.327 53.0288 313.635 50.0895C311.943 47.1502 328.864 40.8517 328.864 40.8517Z" fill="#FFB9B9"/>
<path d="M320.404 71.5044L323.365 76.9631C323.365 76.9631 325.48 69.4049 328.441 68.1452C331.403 66.8855 338.594 64.786 338.594 63.1064C338.594 61.4268 338.171 57.2278 339.863 57.2278C341.555 57.2278 358.054 62.2666 360.592 63.9462C363.13 65.6258 363.553 67.3054 363.553 67.3054L358.9 115.594C358.9 115.594 365.668 138.269 363.553 147.087C361.438 155.904 359.746 157.164 354.669 158.424C349.593 159.684 352.554 155.485 337.748 159.684C322.942 163.883 313.635 162.623 310.251 162.623C306.867 162.623 304.752 164.302 303.906 164.722C303.059 165.142 303.483 162.623 306.444 158.844C309.405 155.065 308.136 148.766 308.136 148.766C308.136 148.766 304.752 137.849 306.867 133.65C308.982 129.451 311.943 123.992 309.405 122.312C306.867 120.633 303.482 108.036 303.482 108.036L294.176 75.2835L313.212 62.2666C313.212 62.2666 312.366 68.1452 315.327 69.4049C318.289 70.6646 320.404 71.5044 320.404 71.5044Z" fill="url(#paint2_linear)"/>
<path d="M296.714 74.8636H294.176C294.176 74.8636 289.945 82.0019 289.945 87.0408C289.945 92.0796 292.061 120.633 292.061 120.633L304.329 133.23L307.29 123.572L308.136 102.157L296.714 74.8636Z" fill="url(#paint3_linear)"/>
<path d="M303.483 119.373C303.483 119.373 289.522 115.594 289.945 121.473C290.368 127.351 292.484 134.49 299.252 136.169C306.021 137.849 308.136 128.611 308.136 128.611C308.136 128.611 308.982 120.213 303.483 119.373Z" fill="url(#paint4_linear)"/>
<path d="M355.938 138.688C355.938 138.688 355.092 158.004 350.016 160.103L362.284 163.043C362.284 163.043 368.206 142.887 367.36 142.048C366.514 141.208 355.938 138.688 355.938 138.688Z" fill="#FFB9B9"/>
<path d="M283.38 99.3717L290.645 96.2215C290.916 96.1038 291.223 96.098 291.499 96.2052C291.775 96.3125 291.996 96.524 292.115 96.7934L300.191 115.145C300.336 115.474 300.343 115.847 300.211 116.181C300.079 116.515 299.819 116.784 299.488 116.927L292.676 119.881C292.344 120.025 291.969 120.032 291.632 119.901C291.296 119.77 291.025 119.511 290.88 119.182L282.804 100.831C282.745 100.697 282.713 100.554 282.71 100.408C282.708 100.263 282.734 100.118 282.787 99.9828C282.841 99.8473 282.921 99.7236 283.022 99.6188C283.124 99.5139 283.245 99.4299 283.38 99.3717V99.3717Z" fill="#2F2E41"/>
<path opacity="0.1" d="M283.38 99.3717L290.645 96.2215C290.916 96.1038 291.223 96.098 291.499 96.2052C291.775 96.3125 291.996 96.524 292.115 96.7934L300.191 115.145C300.336 115.474 300.343 115.847 300.211 116.181C300.079 116.515 299.819 116.784 299.488 116.927L292.676 119.881C292.344 120.025 291.969 120.032 291.632 119.901C291.296 119.77 291.025 119.511 290.88 119.182L282.804 100.831C282.745 100.697 282.713 100.554 282.71 100.408C282.708 100.263 282.734 100.118 282.787 99.9828C282.841 99.8473 282.921 99.7236 283.022 99.6188C283.124 99.5139 283.245 99.4299 283.38 99.3717V99.3717Z" fill="black"/>
<path d="M283.792 100.308L290.126 97.562C290.397 97.4444 290.704 97.4385 290.98 97.5458C291.256 97.653 291.477 97.8646 291.596 98.1339L299.26 115.549C299.405 115.878 299.412 116.25 299.28 116.585C299.148 116.919 298.888 117.187 298.556 117.331L292.676 119.881C292.344 120.025 291.969 120.032 291.632 119.901C291.295 119.77 291.025 119.511 290.88 119.182L283.216 101.768C283.097 101.498 283.091 101.193 283.199 100.92C283.307 100.646 283.521 100.426 283.792 100.308V100.308Z" fill="#2F2E41"/>
<path d="M289.617 107.737C290.645 107.291 291.11 106.091 290.655 105.056C290.199 104.022 288.996 103.544 287.968 103.99C286.939 104.436 286.475 105.636 286.93 106.671C287.386 107.706 288.588 108.183 289.617 107.737Z" fill="#F2F2F2"/>
<path opacity="0.1" d="M359.111 72.974L361.861 68.985C361.861 68.985 372.014 84.5213 371.168 95.0188C370.322 105.516 369.476 105.936 369.476 107.616C369.476 109.295 367.36 109.295 369.476 111.395C371.591 113.494 374.552 116.434 372.86 118.113C371.168 119.793 369.899 119.793 370.322 121.892C370.592 123.418 370.734 124.963 370.745 126.511C370.745 126.511 367.149 133.44 365.88 133.44C364.611 133.44 352.554 144.567 352.554 143.307C352.554 142.048 353.823 133.23 353.823 131.97C353.823 130.71 354.246 126.511 355.092 125.252C355.939 123.992 355.939 124.412 355.092 123.152C354.246 121.892 354.246 123.152 354.246 121.892C354.246 120.633 354.669 118.953 353.4 118.533C352.131 118.113 350.862 118.533 351.708 116.434C352.554 114.334 351.708 112.655 351.285 112.655C350.862 112.655 348.747 112.235 350.016 110.975C351.285 109.715 347.478 85.3611 347.478 85.3611C347.478 85.3611 348.112 79.2726 359.111 72.974Z" fill="black"/>
<path d="M356.784 63.9463L363.976 67.3055C363.976 67.3055 374.129 82.8418 373.283 93.3393C372.437 103.837 371.591 104.257 371.591 105.936C371.591 107.616 369.475 107.616 371.591 109.715C373.706 111.815 376.667 114.754 374.975 116.434C373.283 118.113 372.014 118.113 372.437 120.213C372.707 121.738 372.849 123.283 372.86 124.832C372.86 124.832 369.052 144.987 367.783 144.987C366.514 144.987 354.669 142.888 354.669 141.628C354.669 140.368 355.938 131.55 355.938 130.291C355.938 129.031 356.361 124.832 357.208 123.572C358.054 122.312 358.054 122.732 357.208 121.473C356.361 120.213 356.361 121.473 356.361 120.213C356.361 118.953 356.785 117.274 355.515 116.854C354.246 116.434 352.977 116.854 353.823 114.754C354.669 112.655 353.823 110.975 353.4 110.975C352.977 110.975 350.862 110.555 352.131 109.296C353.4 108.036 349.593 83.6816 349.593 83.6816C349.593 83.6816 345.786 70.2448 356.784 63.9463Z" fill="url(#paint5_linear)"/>
<path d="M292.594 122.372C292.2 122.476 291.782 122.441 291.411 122.275C291.039 122.109 290.737 121.82 290.554 121.459C288.61 117.6 283.343 106.284 288.253 105.936C292.783 105.615 296.818 114.383 298.465 118.524C298.57 118.787 298.617 119.069 298.604 119.352C298.591 119.634 298.518 119.911 298.389 120.163C298.26 120.415 298.079 120.638 297.857 120.816C297.636 120.993 297.379 121.122 297.103 121.194L292.594 122.372Z" fill="#FFB9B9"/>
<path d="M317.02 52.6089C325.664 52.6089 332.672 45.653 332.672 37.0726C332.672 28.4921 325.664 21.5363 317.02 21.5363C308.375 21.5363 301.367 28.4921 301.367 37.0726C301.367 45.653 308.375 52.6089 317.02 52.6089Z" fill="#FFB9B9"/>
<path d="M311.268 28.1249C309.315 28.7938 307.299 29.2661 305.251 29.5349C303.709 29.7736 301.905 29.8958 300.822 28.7815C299.759 27.6879 299.931 25.8636 300.656 24.5251C301.381 23.1866 302.543 22.1373 303.414 20.8877C304.785 18.9224 305.594 16.317 307.786 15.327C308.694 14.9818 309.658 14.8031 310.631 14.7995C316.318 14.4396 322.238 14.1153 327.506 16.2756C329.485 17.0241 331.238 18.2624 332.599 19.8729C333.491 21.0588 334.179 22.3828 334.635 23.7914C336.043 27.9362 336.356 32.3702 335.544 36.6693C334.733 40.9685 332.824 44.9892 330 48.3472C328.08 46.6305 328.915 42.6638 326.486 41.789C325.689 41.502 324.789 41.7018 323.972 41.4746C321.407 40.7606 321.536 36.8256 319.401 35.2446C318.934 34.9954 318.521 34.6585 318.185 34.2527C317.997 33.8634 317.915 33.432 317.948 33.0017C317.932 31.5275 318.63 27.7831 317.213 26.7726C315.771 25.7441 312.654 27.6282 311.268 28.1249Z" fill="#2F2E41"/>
<path d="M302.747 282.583C302.747 282.583 301.597 258.018 278.009 260.873Z" fill="#E6E6E6"/>
<path d="M402.207 225.056C402.207 225.056 403.357 200.492 426.946 203.347Z" fill="#E6E6E6"/>
<path d="M401.719 303.424C401.69 303.166 398.888 277.406 410.233 263.773C414.42 258.742 420.03 255.924 426.908 255.399L426.983 256.37C420.382 256.874 415.001 259.573 410.991 264.391C399.911 277.703 402.665 303.06 402.694 303.314L401.719 303.424Z" fill="#E6E6E6"/>
<path d="M33.5321 82.734H223.227V144.547H216.042V160.713L199.755 144.547H33.5321V82.734Z" fill="#E6E6E6"/>
<path d="M217.958 88.7533H38.8013V138.203H217.958V88.7533Z" fill="white"/>
<path d="M139.467 103.191H53.2082V105.789H139.467V103.191Z" fill="url(#paint6_linear)"/>
<path d="M203.551 112.179H53.2082V114.778H203.551V112.179Z" fill="#E6E6E6"/>
<path d="M203.404 121.168H53.2082V123.766H203.404V121.168Z" fill="#E6E6E6"/>
<path d="M302.855 253.995H301.874V307.562H302.855V253.995Z" fill="#E6E6E6"/>
<path d="M401.958 199.94H400.977V307.562H401.958V199.94Z" fill="#E6E6E6"/>
<path d="M302.747 255.734C307.196 255.734 310.802 252.154 310.802 247.739C310.802 243.323 307.196 239.744 302.747 239.744C298.299 239.744 294.693 243.323 294.693 247.739C294.693 252.154 298.299 255.734 302.747 255.734Z" fill="url(#paint7_linear)"/>
<path d="M402.207 200.492C406.655 200.492 410.261 196.912 410.261 192.497C410.261 188.081 406.655 184.502 402.207 184.502C397.758 184.502 394.152 188.081 394.152 192.497C394.152 196.912 397.758 200.492 402.207 200.492Z" fill="url(#paint8_linear)"/>
<path d="M426.946 263.879C431.394 263.879 435 260.3 435 255.884C435 251.469 431.394 247.89 426.946 247.89C422.497 247.89 418.891 251.469 418.891 255.884C418.891 260.3 422.497 263.879 426.946 263.879Z" fill="#E6E6E6"/>
<defs>
<linearGradient id="paint0_linear" x1="373.324" y1="269.698" x2="373.324" y2="315.478" gradientUnits="userSpaceOnUse">
<stop offset="0.0572917" stop-color="#0092FA"/>
<stop offset="0.770833" stop-color="#0E64E4"/>
</linearGradient>
<linearGradient id="paint1_linear" x1="346.123" y1="291.952" x2="346.123" y2="315.467" gradientUnits="userSpaceOnUse">
<stop offset="0.0572917" stop-color="#0092FA"/>
<stop offset="0.770833" stop-color="#0E64E4"/>
</linearGradient>
<linearGradient id="paint2_linear" x1="329.069" y1="57.2278" x2="329.069" y2="164.768" gradientUnits="userSpaceOnUse">
<stop offset="0.0572917" stop-color="#0092FA"/>
<stop offset="0.770833" stop-color="#0E64E4"/>
</linearGradient>
<linearGradient id="paint3_linear" x1="299.041" y1="74.8636" x2="299.041" y2="133.23" gradientUnits="userSpaceOnUse">
<stop offset="0.0572917" stop-color="#0092FA"/>
<stop offset="0.770833" stop-color="#0E64E4"/>
</linearGradient>
<linearGradient id="paint4_linear" x1="299.059" y1="118.177" x2="299.059" y2="136.373" gradientUnits="userSpaceOnUse">
<stop offset="0.0572917" stop-color="#0092FA"/>
<stop offset="0.770833" stop-color="#0E64E4"/>
</linearGradient>
<linearGradient id="paint5_linear" x1="362.216" y1="63.9463" x2="362.216" y2="144.987" gradientUnits="userSpaceOnUse">
<stop offset="0.0572917" stop-color="#0092FA"/>
<stop offset="0.770833" stop-color="#0E64E4"/>
</linearGradient>
<linearGradient id="paint6_linear" x1="96.3378" y1="103.191" x2="96.3378" y2="105.789" gradientUnits="userSpaceOnUse">
<stop offset="0.0572917" stop-color="#0092FA"/>
<stop offset="0.770833" stop-color="#0E64E4"/>
</linearGradient>
<linearGradient id="paint7_linear" x1="302.747" y1="239.744" x2="302.747" y2="255.734" gradientUnits="userSpaceOnUse">
<stop offset="0.0572917" stop-color="#0092FA"/>
<stop offset="0.770833" stop-color="#0E64E4"/>
</linearGradient>
<linearGradient id="paint8_linear" x1="402.207" y1="184.502" x2="402.207" y2="200.492" gradientUnits="userSpaceOnUse">
<stop offset="0.0572917" stop-color="#0092FA"/>
<stop offset="0.770833" stop-color="#0E64E4"/>
</linearGradient>
</defs>
</svg>
