<svg width="435" height="319" viewBox="0 0 435 319" fill="none" xmlns="http://www.w3.org/2000/svg">
<g clip-path="url(#clip0)">
<path d="M83.7634 95.3655C83.7634 106.782 73.97 105.055 61.8892 105.055C49.8084 105.055 40.015 106.782 40.015 95.3655C40.015 83.9491 44.7988 63.7126 61.8892 63.7126C79.5683 63.7126 83.7634 83.9491 83.7634 95.3655Z" fill="#2F2E41"/>
<path d="M109.496 192.002C109.934 191.105 110.184 190.114 110.229 189.101C110.274 188.087 110.112 187.076 109.754 186.137C109.397 185.199 108.853 184.356 108.161 183.668C107.469 182.981 106.646 182.465 105.749 182.158L80.6884 125.015L69.2252 133.68L97.4631 187.125C97.084 188.783 97.2824 190.534 98.0208 192.045C98.7592 193.556 99.9863 194.723 101.469 195.324C102.953 195.926 104.589 195.92 106.068 195.307C107.548 194.695 108.767 193.519 109.496 192.002V192.002Z" fill="#A0616A"/>
<path d="M87.6894 130.035L86.257 127.619L85.5261 126.379L79.8986 116.87C79.0321 114.783 77.4332 113.151 75.4524 112.332C73.4715 111.513 71.2703 111.574 69.3311 112.502C67.3919 113.429 65.873 115.148 65.1072 117.28C64.3414 119.413 64.3913 121.786 65.2458 123.879L66.5345 128.834L69.1652 138.962C69.3249 139.586 69.665 140.138 70.1361 140.539C70.3145 140.7 70.512 140.834 70.7234 140.939C71.0915 141.127 71.4925 141.228 71.8995 141.235C72.3066 141.243 72.7106 141.158 73.0846 140.984C73.0966 140.978 73.1148 140.971 73.1268 140.965L79.9346 137.683L79.9466 137.677L85.1424 135.171L86.437 134.55C86.8082 134.373 87.1394 134.11 87.4079 133.782C87.6924 133.443 87.9013 133.039 88.0189 132.6C88.1405 132.172 88.1739 131.721 88.117 131.278C88.0601 130.835 87.9142 130.411 87.6894 130.035V130.035Z" fill="#CCCCCC"/>
<path d="M51.7737 211.053C51.5191 210.598 51.1606 210.22 50.7324 209.957C50.3041 209.693 49.8203 209.552 49.327 209.547C48.8338 209.541 48.3475 209.672 47.9145 209.927C47.4816 210.182 47.1163 210.552 46.8535 211.002C46.74 211.186 46.6494 211.386 46.584 211.596L46.2422 212.61H52.6428L51.7737 211.053Z" fill="#2F2E41"/>
<path d="M61.7515 104.4C69.8807 104.4 76.4707 97.2964 76.4707 88.534C76.4707 79.7715 69.8807 72.6681 61.7515 72.6681C53.6223 72.6681 47.0322 79.7715 47.0322 88.534C47.0322 97.2964 53.6223 104.4 61.7515 104.4Z" fill="#A0616A"/>
<path d="M87.5516 135.461C87.5156 134.893 87.4676 134.331 87.4079 133.782C87.1953 131.695 86.8101 129.632 86.257 127.619C86.1432 127.18 86.0174 126.754 85.8796 126.334C84.1272 120.767 81.082 115.777 77.0341 111.838C75.4315 110.29 73.355 109.434 71.203 109.435H50.4674C49.1942 109.435 47.9363 109.735 46.7818 110.314C45.6274 110.893 44.6042 111.737 43.7839 112.786C42.9636 113.836 42.366 115.066 42.0329 116.391C41.6998 117.716 41.6393 119.103 41.8555 120.455C41.8494 120.462 41.8494 120.462 41.8555 120.468C42.0019 121.371 42.2704 122.246 42.6526 123.065L43.4916 124.867L49.1129 136.986L56.1066 152.063L56.5142 152.942L82.5776 160.667L82.6853 160.403C82.7813 160.17 82.8831 159.931 82.9729 159.698C83.1169 159.35 83.2547 159.001 83.3926 158.658C85.7138 152.967 87.1241 146.893 87.5636 140.694V140.687C87.6617 138.947 87.6577 137.201 87.5516 135.461V135.461Z" fill="url(#paint0_linear)"/>
<path d="M83.3926 158.658C83.304 158.33 83.1642 158.019 82.9791 157.741C82.308 156.774 81.5059 155.92 80.5998 155.209L80.5939 155.202C77.4356 152.619 71.167 149.608 59.0554 149.531H59.0372C58.4822 149.531 57.939 149.704 57.4725 150.028C57.006 150.352 56.6358 150.814 56.4062 151.359L56.1066 152.063L54.177 156.636C54.0125 157.028 53.7538 157.365 53.4279 157.612C50.3656 159.95 35.5331 173.064 44.2407 201.855C45.0917 204.665 45.9666 207.733 46.8536 211.002C46.9975 211.532 47.1414 212.068 47.2852 212.61H73.3904L72.833 208.089C72.7958 207.793 72.8101 207.493 72.8751 207.204L83.3806 160.474L83.4286 160.273C83.5487 159.741 83.5362 159.184 83.3926 158.658V158.658Z" fill="#00252E"/>
<path d="M91.5848 106.347H102.971C103.448 106.347 103.906 106.551 104.243 106.915C104.58 107.278 104.769 107.771 104.769 108.285V111.515C104.928 111.516 105.08 111.584 105.193 111.705C105.305 111.826 105.368 111.99 105.369 112.161V113.453C105.368 113.624 105.305 113.788 105.193 113.909C105.08 114.03 104.928 114.098 104.769 114.099V115.391C104.928 115.391 105.08 115.46 105.193 115.581C105.305 115.702 105.368 115.866 105.369 116.037V117.329C105.368 117.5 105.305 117.664 105.193 117.785C105.08 117.906 104.928 117.974 104.769 117.975V135.416C104.769 135.93 104.58 136.423 104.243 136.786C103.906 137.15 103.448 137.354 102.971 137.354H91.5848C91.108 137.354 90.6507 137.15 90.3136 136.786C89.9764 136.423 89.787 135.93 89.787 135.416V108.285C89.787 107.771 89.9764 107.278 90.3136 106.915C90.6507 106.551 91.108 106.347 91.5848 106.347Z" fill="#00252E"/>
<path d="M90.9855 135.416V108.285C90.9855 107.771 91.175 107.278 91.5121 106.915C91.8493 106.551 92.3066 106.347 92.7834 106.347H91.5848C91.108 106.347 90.6507 106.551 90.3136 106.915C89.9764 107.278 89.787 107.771 89.7869 108.285V135.416C89.787 135.93 89.9764 136.423 90.3136 136.786C90.6507 137.15 91.108 137.354 91.5848 137.354H92.7834C92.3066 137.354 91.8493 137.15 91.5121 136.786C91.175 136.423 90.9855 135.93 90.9855 135.416V135.416Z" fill="#6C63FF"/>
<path d="M96.9785 117.975C98.3024 117.975 99.3756 116.818 99.3756 115.391C99.3756 113.964 98.3024 112.807 96.9785 112.807C95.6546 112.807 94.5813 113.964 94.5813 115.391C94.5813 116.818 95.6546 117.975 96.9785 117.975Z" fill="white"/>
<path d="M93.937 124.443C93.7423 124.732 93.5691 125.038 93.419 125.357L63.9103 129.178L59.5709 122.957L50.0057 128.789L56.6949 140.606C57.2353 141.561 58.0484 142.3 59.0121 142.715C59.9759 143.129 61.0382 143.195 62.0397 142.903L94.6791 133.384C95.6066 134.331 96.7796 134.951 98.0421 135.161C99.3045 135.372 100.597 135.164 101.746 134.563C102.896 133.963 103.849 133 104.479 131.802C105.108 130.604 105.385 129.228 105.271 127.856C105.157 126.484 104.658 125.183 103.841 124.124C103.025 123.066 101.928 122.3 100.698 121.93C99.4672 121.559 98.1614 121.601 96.9537 122.05C95.746 122.499 94.6938 123.334 93.937 124.443V124.443Z" fill="#A0616A"/>
<path d="M63.6639 125.197L55.3935 113.647C54.4706 111.867 52.957 110.529 51.1569 109.903C49.3567 109.276 47.4033 109.407 45.689 110.269C43.9748 111.132 42.6267 112.661 41.9156 114.551C41.2045 116.44 41.183 118.55 41.8556 120.455C41.8494 120.462 41.8494 120.462 41.8556 120.468C41.9788 120.82 42.1271 121.161 42.2989 121.489L43.4916 124.867L47.1172 135.171C47.2543 135.562 47.4683 135.916 47.7446 136.209C48.0208 136.503 48.3528 136.728 48.7176 136.87C48.8461 136.92 48.9783 136.959 49.1129 136.986C49.7409 137.124 50.394 137.014 50.9529 136.676L53.5778 135.093L62.8428 129.512C63.1799 129.306 63.4724 129.025 63.7007 128.687C63.9291 128.35 64.0881 127.964 64.1672 127.555C64.245 127.146 64.2404 126.723 64.1535 126.317C64.0667 125.91 63.8997 125.528 63.6639 125.197Z" fill="url(#paint1_linear)"/>
<path d="M44.8093 91.4897H50.6311L53.1994 81.9491L53.713 91.4897H56.4955L57.9938 85.9244L58.2934 91.4897H78.969C78.969 80.0733 71.9929 70.8185 63.3874 70.8185H60.3909C51.7855 70.8185 44.8093 80.0733 44.8093 91.4897Z" fill="#2F2E41"/>
<path d="M215.534 79.362H93.5246C91.9909 79.3601 90.5204 78.7026 89.4359 77.5336C88.3514 76.3646 87.7413 74.7796 87.7396 73.1264V6.23562C87.7413 4.5824 88.3514 2.99742 89.4359 1.82842C90.5204 0.659419 91.9909 0.00185851 93.5246 0H215.534C217.068 0.0018568 218.538 0.659419 219.623 1.82842C220.707 2.99742 221.318 4.5824 221.319 6.23562V73.1264C221.318 74.7796 220.707 76.3646 219.623 77.5336C218.538 78.7026 217.068 79.3601 215.534 79.362V79.362Z" fill="#CCCCCC"/>
<path d="M214.132 74.8271H94.927C94.1369 74.8261 93.3794 74.4874 92.8207 73.8852C92.262 73.283 91.9478 72.4665 91.9469 71.6148V7.74731C91.9478 6.89565 92.262 6.07914 92.8207 5.47693C93.3794 4.87472 94.1369 4.53598 94.927 4.53503H214.132C214.922 4.53598 215.679 4.87472 216.238 5.47693C216.797 6.07914 217.111 6.89565 217.112 7.74731V71.6148C217.111 72.4665 216.797 73.283 216.238 73.8852C215.679 74.4874 214.922 74.8261 214.132 74.8271Z" fill="white"/>
<path d="M100.84 91.6575C100.544 91.6567 100.251 91.5928 99.9781 91.4697C99.5706 91.2931 99.2221 90.9881 98.9781 90.5945C98.7342 90.201 98.6061 89.7371 98.6107 89.2638V76.9698L115.798 76.5015L102.392 90.9521C102.189 91.1745 101.948 91.3514 101.682 91.4725C101.415 91.5936 101.129 91.6565 100.84 91.6575V91.6575Z" fill="#CCCCCC"/>
<path d="M199.618 36.8169H139.314C138.946 36.8175 138.58 36.7397 138.24 36.588C137.899 36.4363 137.589 36.2137 137.328 35.9329C137.067 35.6521 136.861 35.3187 136.719 34.9516C136.578 34.5845 136.505 34.191 136.505 33.7936C136.505 33.3962 136.578 33.0027 136.719 32.6356C136.861 32.2685 137.067 31.935 137.328 31.6542C137.589 31.3734 137.899 31.1508 138.24 30.9991C138.58 30.8475 138.946 30.7697 139.314 30.7703H199.618C200.362 30.7703 201.075 31.0888 201.601 31.6558C202.127 32.2228 202.423 32.9917 202.423 33.7936C202.423 34.5954 202.127 35.3644 201.601 35.9314C201.075 36.4984 200.362 36.8169 199.618 36.8169Z" fill="#CCCCCC"/>
<path d="M179.984 23.9678H139.314C138.57 23.9678 137.857 23.6492 137.331 23.0823C136.805 22.5153 136.509 21.7463 136.509 20.9445C136.509 20.1426 136.805 19.3736 137.331 18.8067C137.857 18.2397 138.57 17.9211 139.314 17.9211H179.984C180.728 17.9211 181.442 18.2397 181.968 18.8067C182.494 19.3736 182.789 20.1426 182.789 20.9445C182.789 21.7463 182.494 22.5153 181.968 23.0823C181.442 23.6492 180.728 23.9678 179.984 23.9678V23.9678Z" fill="#CCCCCC"/>
<path d="M114.351 36.8168C119.192 36.8168 123.116 32.5869 123.116 27.369C123.116 22.1511 119.192 17.9211 114.351 17.9211C109.51 17.9211 105.586 22.1511 105.586 27.369C105.586 32.5869 109.51 36.8168 114.351 36.8168Z" fill="#00252E"/>
<path d="M181.034 61.4408C182.583 61.4408 183.839 60.0872 183.839 58.4175C183.839 56.7478 182.583 55.3942 181.034 55.3942C179.485 55.3942 178.229 56.7478 178.229 58.4175C178.229 60.0872 179.485 61.4408 181.034 61.4408Z" fill="#E6E6E6"/>
<path d="M190.851 61.4408C192.4 61.4408 193.656 60.0872 193.656 58.4175C193.656 56.7478 192.4 55.3942 190.851 55.3942C189.302 55.3942 188.046 56.7478 188.046 58.4175C188.046 60.0872 189.302 61.4408 190.851 61.4408Z" fill="#E6E6E6"/>
<path d="M200.668 61.4408C202.217 61.4408 203.473 60.0872 203.473 58.4175C203.473 56.7478 202.217 55.3942 200.668 55.3942C199.119 55.3942 197.863 56.7478 197.863 58.4175C197.863 60.0872 199.119 61.4408 200.668 61.4408Z" fill="#E6E6E6"/>
<path d="M320.965 217.362H198.955C197.421 217.36 195.951 216.703 194.866 215.534C193.782 214.365 193.172 212.78 193.17 211.126V144.236C193.172 142.582 193.782 140.997 194.866 139.828C195.951 138.659 197.421 138.002 198.955 138H320.965C322.498 138.002 323.969 138.659 325.053 139.828C326.138 140.997 326.748 142.582 326.75 144.236V211.126C326.748 212.78 326.138 214.365 325.053 215.534C323.969 216.703 322.498 217.36 320.965 217.362V217.362Z" fill="#CCCCCC"/>
<path d="M319.562 212.827H200.357C199.567 212.826 198.81 212.487 198.251 211.885C197.693 211.283 197.378 210.466 197.377 209.615V145.747C197.378 144.896 197.693 144.079 198.251 143.477C198.81 142.875 199.567 142.536 200.357 142.535H319.562C320.352 142.536 321.11 142.875 321.669 143.477C322.227 144.079 322.542 144.896 322.542 145.747V209.615C322.542 210.466 322.227 211.283 321.669 211.885C321.11 212.487 320.352 212.826 319.562 212.827Z" fill="white"/>
<path d="M312.659 228.952L299.252 214.501L316.44 214.97V227.264C316.445 227.737 316.317 228.201 316.073 228.595C315.829 228.988 315.48 229.293 315.073 229.47C314.8 229.593 314.507 229.657 314.211 229.657C313.922 229.656 313.636 229.594 313.369 229.472C313.103 229.351 312.861 229.175 312.659 228.952V228.952Z" fill="#CCCCCC"/>
<path d="M305.048 174.817H244.745C244.376 174.817 244.011 174.74 243.67 174.588C243.329 174.436 243.02 174.214 242.759 173.933C242.498 173.652 242.291 173.319 242.15 172.952C242.009 172.584 241.936 172.191 241.936 171.794C241.936 171.396 242.009 171.003 242.15 170.636C242.291 170.268 242.498 169.935 242.759 169.654C243.02 169.373 243.329 169.151 243.67 168.999C244.011 168.847 244.376 168.77 244.745 168.77H305.048C305.417 168.77 305.782 168.847 306.123 168.999C306.464 169.151 306.773 169.373 307.034 169.654C307.295 169.935 307.502 170.268 307.643 170.636C307.785 171.003 307.857 171.396 307.857 171.794C307.857 172.191 307.785 172.584 307.643 172.952C307.502 173.319 307.295 173.652 307.034 173.933C306.773 174.214 306.464 174.436 306.123 174.588C305.782 174.74 305.417 174.817 305.048 174.817V174.817Z" fill="#CCCCCC"/>
<path d="M285.415 161.968H244.745C244.376 161.968 244.012 161.89 243.671 161.738C243.331 161.586 243.022 161.363 242.761 161.082C242.501 160.802 242.294 160.468 242.153 160.101C242.013 159.735 241.94 159.341 241.94 158.944C241.94 158.547 242.013 158.154 242.153 157.787C242.294 157.421 242.501 157.087 242.761 156.807C243.022 156.526 243.331 156.303 243.671 156.151C244.012 155.999 244.376 155.921 244.745 155.921H285.415C286.159 155.921 286.872 156.24 287.398 156.807C287.924 157.374 288.22 158.143 288.22 158.944C288.22 159.746 287.924 160.515 287.398 161.082C286.872 161.649 286.159 161.968 285.415 161.968V161.968Z" fill="#CCCCCC"/>
<path d="M219.782 174.817C224.623 174.817 228.547 170.587 228.547 165.369C228.547 160.151 224.623 155.921 219.782 155.921C214.941 155.921 211.017 160.151 211.017 165.369C211.017 170.587 214.941 174.817 219.782 174.817Z" fill="#00252E"/>
<path d="M286.465 199.441C288.014 199.441 289.269 198.087 289.269 196.418C289.269 194.748 288.014 193.394 286.465 193.394C284.916 193.394 283.66 194.748 283.66 196.418C283.66 198.087 284.916 199.441 286.465 199.441Z" fill="#E6E6E6"/>
<path d="M296.281 199.441C297.831 199.441 299.086 198.087 299.086 196.418C299.086 194.748 297.831 193.394 296.281 193.394C294.732 193.394 293.477 194.748 293.477 196.418C293.477 198.087 294.732 199.441 296.281 199.441Z" fill="#E6E6E6"/>
<path d="M306.098 199.441C307.647 199.441 308.903 198.087 308.903 196.418C308.903 194.748 307.647 193.394 306.098 193.394C304.549 193.394 303.294 194.748 303.294 196.418C303.294 198.087 304.549 199.441 306.098 199.441Z" fill="#E6E6E6"/>
<path d="M322.305 257.848C322.791 257.056 323.431 256.388 324.182 255.891C324.933 255.395 325.776 255.082 326.652 254.974C327.527 254.867 328.414 254.968 329.249 255.27C330.084 255.571 330.848 256.067 331.486 256.721L350.517 246.134L349.334 258.061L331.444 266.287C330.353 267.37 328.931 267.984 327.448 268.013C325.965 268.042 324.523 267.483 323.397 266.443C322.27 265.403 321.537 263.953 321.336 262.369C321.135 260.785 321.479 259.176 322.305 257.848V257.848Z" fill="#FFB8B8"/>
<path d="M381.558 204.82C380.082 203.575 378.272 202.877 376.398 202.832C374.525 202.787 372.687 203.395 371.161 204.568C370.472 205.101 369.857 205.736 369.333 206.454L352.625 239.858L337.205 252.415C336.694 252.83 336.337 253.428 336.198 254.101C336.093 254.595 336.112 255.11 336.252 255.594L337.768 260.865C337.93 261.431 338.248 261.931 338.679 262.299C338.847 262.435 339.028 262.552 339.218 262.648C339.241 262.661 339.265 262.672 339.29 262.68C339.627 262.836 339.989 262.915 340.355 262.914C340.721 262.913 341.082 262.831 341.418 262.673L359.493 254.224L359.69 254.127C365.783 251.221 370.702 246.051 373.552 239.56L383.057 217.94C384.465 215.983 385.099 213.505 384.818 211.047C384.537 208.588 383.365 206.35 381.558 204.82V204.82Z" fill="url(#paint2_linear)"/>
<path d="M383.474 192.51C391.603 192.51 398.193 185.407 398.193 176.645C398.193 167.882 391.603 160.779 383.474 160.779C375.345 160.779 368.755 167.882 368.755 176.645C368.755 185.407 375.345 192.51 383.474 192.51Z" fill="#FFB8B8"/>
<path d="M393.437 282.744L393.287 281.51L392.592 275.884L391.83 269.741L389.128 270.238L388.085 270.425L387.03 270.619L386.683 270.684L359.87 275.593L356.532 273.429L356.46 273.384L356.49 273.713L357.119 280.748L360.122 314.352H397.35L393.437 282.744Z" fill="#00252E"/>
<path d="M403.744 218.191C403.267 212.437 400.744 207.104 396.703 203.308C392.813 199.595 387.715 197.699 382.529 198.037C377.585 198.392 373.786 200.582 371.161 204.568C369.81 206.701 368.813 209.07 368.212 211.57C365.228 223.146 362.081 240.103 359.69 254.127C358.348 261.956 357.245 268.875 356.532 273.429C356.52 273.526 356.508 273.616 356.49 273.713C356.214 275.49 356.005 276.878 355.867 277.802C355.78 278.372 355.852 278.957 356.075 279.481C356.299 280.006 356.662 280.447 357.119 280.748C357.125 280.754 357.137 280.761 357.143 280.767C360.168 282.718 363.621 283.764 367.146 283.797C371.413 283.797 376.531 282.195 381.918 277.021C382.284 276.662 382.755 276.454 383.249 276.432C383.743 276.409 384.228 276.574 384.621 276.898L385.208 277.389L391.009 282.253C391.462 282.635 392.017 282.85 392.592 282.867C392.878 282.88 393.164 282.839 393.437 282.744C393.461 282.741 393.485 282.734 393.508 282.725C393.927 282.578 394.305 282.323 394.61 281.981C394.915 281.64 395.138 281.223 395.259 280.767C395.582 279.553 395.942 278.151 396.337 276.588C396.499 275.935 396.667 275.251 396.84 274.54C397.602 271.401 398.447 267.757 399.274 263.791C402.162 249.928 404.907 232.119 403.744 218.191Z" fill="url(#paint3_linear)"/>
<path d="M379.505 284.402C379.433 283.455 379.555 282.503 379.862 281.613C380.169 280.723 380.653 279.916 381.28 279.249C381.907 278.582 382.662 278.072 383.493 277.753C384.323 277.435 385.207 277.317 386.084 277.408L394.997 256.418L400.895 266.59L391.527 284.963C391.289 286.541 390.522 287.97 389.371 288.979C388.221 289.988 386.767 290.507 385.285 290.438C383.803 290.369 382.396 289.716 381.331 288.604C380.265 287.491 379.616 285.996 379.505 284.402V284.402Z" fill="#FFB8B8"/>
<path d="M409.36 235.924L404.457 212.585C404.445 210.282 403.649 208.065 402.219 206.355C400.789 204.645 398.826 203.56 396.703 203.308C396.397 203.276 396.085 203.257 395.768 203.257C394.623 203.26 393.49 203.506 392.434 203.982C391.378 204.458 390.419 205.153 389.613 206.028C388.806 206.904 388.168 207.942 387.734 209.084C387.3 210.225 387.079 211.448 387.084 212.682L393.065 250.077L393.047 250.155L389.877 263.055L388.121 270.219C388.103 270.286 388.091 270.355 388.085 270.425C387.973 271.026 388.046 271.65 388.295 272.202C388.494 272.665 388.804 273.062 389.194 273.352L392.592 275.884L393.401 276.491C393.851 276.829 394.386 277.01 394.935 277.008C395.147 277.008 395.358 276.982 395.564 276.93C395.588 276.924 395.606 276.918 395.63 276.911C395.879 276.841 396.117 276.732 396.337 276.588C396.745 276.321 397.081 275.942 397.308 275.49L406.693 256.815C409.898 250.429 410.846 243.006 409.36 235.924V235.924Z" fill="url(#paint4_linear)"/>
<path opacity="0.2" d="M388.278 228.45L393.671 252.998L385.88 273.669L391.274 253.644L388.278 228.45Z" fill="black"/>
<path d="M395.386 186.18C396.62 185.706 397.754 184.974 398.723 184.024C399.152 183.612 399.612 183.229 400.039 182.817C403.814 179.178 404.948 172.921 403.264 167.773C401.58 162.626 397.391 158.669 392.606 156.886C387.82 155.103 382.515 155.346 377.656 156.881C372.421 158.534 367.179 162.257 365.936 167.981C365.605 169.505 365.592 171.196 366.555 172.481C366.844 172.869 367.223 173.169 367.654 173.35C369.35 174.051 370.295 172.62 371.562 172.012C373.302 171.177 375.443 172.079 376.655 173.664C377.866 175.248 378.314 177.353 378.5 179.397C378.538 180.656 378.721 181.906 379.046 183.117C379.215 183.722 379.525 184.27 379.945 184.71C380.366 185.149 380.884 185.466 381.45 185.629C382.815 185.901 384.128 184.888 384.987 183.712C385.846 182.536 386.455 181.139 387.471 180.118C388.486 179.097 390.141 178.558 391.254 179.453C391.627 179.792 391.941 180.199 392.183 180.655C393.888 183.479 393.681 183.357 395.386 186.18H395.386Z" fill="#2F2E41"/>
<path d="M324.897 244.265L314.513 249.301C314.078 249.512 313.738 249.9 313.569 250.381C313.4 250.861 313.415 251.394 313.611 251.863L314.84 254.809C314.695 254.879 314.583 255.009 314.526 255.169C314.47 255.329 314.475 255.506 314.539 255.663L315.031 256.841C315.097 256.997 315.217 257.118 315.365 257.179C315.514 257.24 315.679 257.235 315.824 257.165L316.315 258.343C316.171 258.414 316.058 258.543 316.002 258.703C315.945 258.863 315.95 259.041 316.015 259.197L316.506 260.375C316.572 260.531 316.692 260.653 316.841 260.714C316.989 260.774 317.154 260.769 317.299 260.7L323.938 276.605C324.133 277.074 324.494 277.44 324.94 277.622C325.385 277.804 325.88 277.788 326.315 277.577L336.699 272.542C337.134 272.331 337.473 271.942 337.642 271.462C337.812 270.981 337.797 270.448 337.601 269.979L327.274 245.237C327.078 244.768 326.718 244.403 326.272 244.22C325.826 244.038 325.331 244.054 324.897 244.265Z" fill="#3F3D56"/>
<path d="M335.677 268.52L334.214 265.012L330.379 255.826L327.011 247.758C326.824 247.309 326.479 246.957 326.052 246.782C325.625 246.606 325.151 246.62 324.734 246.821L319.016 249.593L316.397 250.865C315.982 251.069 315.658 251.441 315.496 251.901C315.335 252.361 315.348 252.871 315.534 253.32L319.016 261.666L320.353 264.863L324.2 274.088C324.39 274.537 324.736 274.886 325.164 275.06C325.592 275.234 326.066 275.219 326.484 275.018L334.814 270.974C335.23 270.771 335.554 270.399 335.716 269.939C335.877 269.479 335.863 268.969 335.677 268.52Z" fill="#00252E"/>
</g>
<defs>
<linearGradient id="paint0_linear" x1="64.6814" y1="109.435" x2="64.6814" y2="160.667" gradientUnits="userSpaceOnUse">
<stop offset="0.0572917" stop-color="#0092FA"/>
<stop offset="0.770833" stop-color="#0E64E4"/>
</linearGradient>
<linearGradient id="paint1_linear" x1="52.7943" y1="109.512" x2="52.7943" y2="137.044" gradientUnits="userSpaceOnUse">
<stop offset="0.0572917" stop-color="#0092FA"/>
<stop offset="0.770833" stop-color="#0E64E4"/>
</linearGradient>
<linearGradient id="paint2_linear" x1="360.507" y1="202.83" x2="360.507" y2="262.914" gradientUnits="userSpaceOnUse">
<stop offset="0.0572917" stop-color="#0092FA"/>
<stop offset="0.770833" stop-color="#0E64E4"/>
</linearGradient>
<linearGradient id="paint3_linear" x1="379.924" y1="197.999" x2="379.924" y2="283.797" gradientUnits="userSpaceOnUse">
<stop offset="0.0572917" stop-color="#0092FA"/>
<stop offset="0.770833" stop-color="#0E64E4"/>
</linearGradient>
<linearGradient id="paint4_linear" x1="398.565" y1="203.257" x2="398.565" y2="277.008" gradientUnits="userSpaceOnUse">
<stop offset="0.0572917" stop-color="#0092FA"/>
<stop offset="0.770833" stop-color="#0E64E4"/>
</linearGradient>
<clipPath id="clip0">
<rect width="435" height="319" fill="white"/>
</clipPath>
</defs>
</svg>
