<svg width="435" height="319" viewBox="0 0 435 319" fill="none" xmlns="http://www.w3.org/2000/svg">
<g clip-path="url(#clip0)">
<path d="M276.501 184.631L216.465 126.542L95.9557 127.437L22.8529 185.349L24.33 186.121H23.8026V306.579H276.339V186.121L276.501 184.631Z" fill="#00252E"/>
<path d="M216.528 126.665L141.526 198.182V306.579H276.339V184.578L216.528 126.665Z" fill="url(#paint0_linear)"/>
<path d="M223.173 246.634H195.641V266.427H223.173V246.634Z" fill="white"/>
<path d="M223.173 212.375H195.641V231.854H223.173V212.375Z" fill="white"/>
<path d="M100.818 241.382H73.2862V261.175H100.818V241.382Z" fill="white"/>
<path d="M100.818 207.124H73.2862V226.602H100.818V207.124Z" fill="white"/>
<path d="M435 306.203H0V307.045H435V306.203Z" fill="#3F3D56"/>
<path d="M369.489 292.902L371.559 301.32L361.208 303.004L362.76 292.481L369.489 292.902Z" fill="#A0616A"/>
<path d="M402.094 291.218L399.507 301.741H387.085L392.261 289.113L402.094 291.218Z" fill="#A0616A"/>
<path d="M413.48 217.975L415.55 229.34L412.962 254.176L410.892 263.436L402.094 293.744C402.094 293.744 392.26 293.744 390.708 290.376L393.296 273.118C393.296 273.118 395.366 259.227 394.848 257.543C394.331 255.859 386.567 228.919 386.567 228.919C386.567 228.919 375.181 271.434 373.629 275.223C372.076 279.011 370.006 295.428 370.006 295.428C370.006 295.428 361.208 296.69 360.69 295.428C360.172 294.165 359.655 264.278 359.655 259.648C359.655 255.018 360.69 252.492 360.69 251.65C360.69 250.808 356.612 210.62 356.612 210.62L413.48 217.975Z" fill="#00252E"/>
<path d="M392.26 299.637C392.26 299.637 394.848 300.058 396.401 299.637C397.953 299.216 396.401 296.69 396.401 296.69H402.094C402.094 296.69 408.304 308.056 410.892 308.898C413.48 309.739 421.761 319 411.927 319C405.86 318.937 399.938 317.477 394.848 314.791C394.848 314.791 393.813 311.002 389.155 310.581C384.497 310.16 381.392 305.53 381.392 305.53L388.12 295.427C388.12 295.427 389.673 300.058 392.26 299.637Z" fill="#2F2E41"/>
<path d="M367.936 299.216C367.936 299.216 366.9 300.9 365.865 300.058C364.83 299.216 363.795 297.111 363.795 297.111C363.795 297.111 360.69 295.848 360.172 297.111C359.655 298.374 357.585 305.109 356.55 305.951C355.514 306.793 344.646 315.632 355.514 317.316C366.383 319 368.453 315.212 368.453 315.212C368.453 315.212 366.9 313.107 370.006 312.265C373.111 311.423 373.629 308.477 373.629 308.477L371.558 295.848C371.558 295.848 369.488 300.058 367.936 299.216Z" fill="#2F2E41"/>
<path d="M425.384 188.509L426.936 210.398C426.936 210.398 434.182 224.289 424.349 223.868C414.515 223.447 420.726 209.977 420.726 209.977L411.098 190.442L425.384 188.509Z" fill="#A0616A"/>
<path d="M345.681 182.195L344.128 204.084C344.128 204.084 336.883 217.975 346.716 217.554C356.55 217.133 350.339 203.663 350.339 203.663L359.967 184.127L345.681 182.195Z" fill="#A0616A"/>
<path d="M387.085 134.629C394.517 134.629 400.541 129.729 400.541 123.685C400.541 117.64 394.517 112.74 387.085 112.74C379.653 112.74 373.629 117.64 373.629 123.685C373.629 129.729 379.653 134.629 387.085 134.629Z" fill="#A0616A"/>
<path d="M397.695 128.104C397.695 128.104 394.072 139.891 401.318 142.837C408.563 145.784 378.545 149.993 376.475 142.837L377.51 139.47C377.51 139.47 381.651 135.26 380.616 131.472L397.695 128.104Z" fill="#A0616A"/>
<path d="M389.673 143.048C389.673 143.048 380.742 143.726 377.962 138.967C377.962 138.967 357.067 140.101 352.409 155.676L360.172 196.086C360.172 196.086 351.892 207.872 352.927 209.135C352.927 209.135 347.751 220.921 395.366 221.342L416.068 220.5C416.348 218.108 416.173 215.694 415.55 213.344C414.515 209.556 408.822 183.037 408.822 183.037C408.822 183.037 424.348 163.253 422.796 160.306C421.243 157.36 418.757 145.741 398.78 141.027C398.78 141.027 398.471 143.469 389.673 143.048Z" fill="url(#paint1_linear)"/>
<path d="M416.068 153.15L422.796 160.306C422.796 160.306 429.524 190.193 427.454 190.614C425.384 191.035 412.962 194.402 410.892 193.14C408.822 191.877 399.506 167.041 399.506 167.041L416.068 153.15Z" fill="url(#paint2_linear)"/>
<path d="M361.208 151.046L352.409 155.676C352.409 155.676 339.47 185.142 343.093 186.404C346.716 187.667 366.901 186.825 366.901 186.825L361.208 151.046Z" fill="url(#paint3_linear)"/>
<path d="M401.794 113.89C401.794 113.89 397.133 105.677 388.199 107.572C379.266 109.468 374.217 112.311 373.828 115.154C373.44 117.997 374.022 122.262 374.022 122.262C374.022 122.262 374.993 116.418 381.208 117.681C384.513 118.353 388.808 118.4 392.104 118.296C392.75 118.274 393.395 118.36 393.999 118.548C394.603 118.736 395.153 119.022 395.617 119.389C396.08 119.755 396.447 120.195 396.695 120.681C396.942 121.167 397.065 121.688 397.057 122.214L396.894 131.262C396.894 131.262 409.833 124.527 401.794 113.89Z" fill="#2F2E41"/>
<path d="M338.327 117.076H155.536C154.639 117.075 153.778 116.784 153.144 116.268C152.509 115.752 152.152 115.052 152.151 114.322V46.0583C152.152 45.3284 152.509 44.6286 153.144 44.1125C153.778 43.5964 154.639 43.306 155.536 43.3052H338.327C339.224 43.306 340.085 43.5964 340.719 44.1125C341.354 44.6286 341.711 45.3284 341.712 46.0583V114.322C341.711 115.052 341.354 115.752 340.719 116.268C340.085 116.784 339.224 117.075 338.327 117.076V117.076ZM155.536 44.4064C154.998 44.4069 154.481 44.5811 154.101 44.8908C153.72 45.2005 153.506 45.6203 153.505 46.0583V114.322C153.506 114.76 153.72 115.18 154.101 115.49C154.481 115.8 154.998 115.974 155.536 115.974H338.327C338.865 115.974 339.382 115.8 339.762 115.49C340.143 115.18 340.357 114.76 340.358 114.322V46.0583C340.357 45.6203 340.143 45.2005 339.762 44.8908C339.382 44.5811 338.865 44.4069 338.327 44.4064H155.536Z" fill="#E6E6E6"/>
<path d="M182.584 78.7023C190.199 78.7023 196.373 73.6812 196.373 67.4875C196.373 61.2937 190.199 56.2727 182.584 56.2727C174.969 56.2727 168.795 61.2937 168.795 67.4875C168.795 73.6812 174.969 78.7023 182.584 78.7023Z" fill="url(#paint4_linear)"/>
<path d="M214.429 60.011C214.127 60.0106 213.828 60.0587 213.549 60.1525C213.27 60.2462 213.016 60.3839 212.802 60.5575C212.588 60.7311 212.419 60.9372 212.303 61.1642C212.187 61.3911 212.128 61.6344 212.128 61.8801C212.128 62.1258 212.187 62.3691 212.303 62.5961C212.419 62.823 212.588 63.0292 212.802 63.2028C213.016 63.3764 213.27 63.514 213.549 63.6078C213.828 63.7016 214.127 63.7496 214.429 63.7493H322.769C323.379 63.7493 323.963 63.5523 324.394 63.2018C324.825 62.8513 325.068 62.3758 325.068 61.8801C325.068 61.3844 324.825 60.909 324.394 60.5584C323.963 60.2079 323.379 60.011 322.769 60.011H214.429Z" fill="#E6E6E6"/>
<path d="M214.429 71.2258C214.127 71.2255 213.828 71.2735 213.549 71.3673C213.27 71.4611 213.016 71.5987 212.802 71.7723C212.588 71.9459 212.419 72.1521 212.303 72.379C212.187 72.606 212.128 72.8493 212.128 73.095C212.128 73.3407 212.187 73.5839 212.303 73.8109C212.419 74.0379 212.588 74.244 212.802 74.4176C213.016 74.5912 213.27 74.7289 213.549 74.8226C213.828 74.9164 214.127 74.9645 214.429 74.9641H261.048C261.351 74.9645 261.65 74.9164 261.929 74.8226C262.208 74.7289 262.462 74.5912 262.676 74.4176C262.889 74.244 263.059 74.0379 263.175 73.8109C263.29 73.5839 263.35 73.3407 263.35 73.095C263.35 72.8493 263.29 72.606 263.175 72.379C263.059 72.1521 262.889 71.9459 262.676 71.7723C262.462 71.5987 262.208 71.4611 261.929 71.3673C261.65 71.2735 261.351 71.2255 261.048 71.2258H214.429Z" fill="#E6E6E6"/>
<path d="M172.008 89.1548C170.26 89.1548 168.837 89.9934 168.837 91.0239C168.837 92.0544 170.26 92.893 172.008 92.893H321.484C323.232 92.893 324.654 92.0544 324.654 91.0239C324.654 89.9934 323.232 89.1548 321.484 89.1548H172.008Z" fill="#E6E6E6"/>
<path d="M172.008 100.37C170.26 100.37 168.837 101.208 168.837 102.239C168.837 103.269 170.26 104.108 172.008 104.108H321.484C323.232 104.108 324.654 103.269 324.654 102.239C324.654 101.208 323.232 100.37 321.484 100.37H172.008Z" fill="#E6E6E6"/>
<path d="M305.406 39.8899C318.949 39.8899 329.928 30.9602 329.928 19.9449C329.928 8.92965 318.949 0 305.406 0C291.862 0 280.883 8.92965 280.883 19.9449C280.883 30.9602 291.862 39.8899 305.406 39.8899Z" fill="url(#paint5_linear)"/>
<path d="M305.406 52.368L297.738 41.5663L290.07 30.7646H305.406H320.741L313.073 41.5663L305.406 52.368Z" fill="url(#paint6_linear)"/>
<path d="M305.603 26.9764C310.462 26.9764 314.402 23.7726 314.402 19.8205C314.402 15.8684 310.462 12.6646 305.603 12.6646C300.744 12.6646 296.805 15.8684 296.805 19.8205C296.805 23.7726 300.744 26.9764 305.603 26.9764Z" fill="white"/>
<path d="M397.929 125.789C399.072 125.789 399.999 124.847 399.999 123.685C399.999 122.522 399.072 121.58 397.929 121.58C396.786 121.58 395.859 122.522 395.859 123.685C395.859 124.847 396.786 125.789 397.929 125.789Z" fill="#A0616A"/>
</g>
<defs>
<linearGradient id="paint0_linear" x1="208.932" y1="126.665" x2="208.932" y2="306.579" gradientUnits="userSpaceOnUse">
<stop offset="0.0572917" stop-color="#0092FA"/>
<stop offset="0.770833" stop-color="#0E64E4"/>
</linearGradient>
<linearGradient id="paint1_linear" x1="387.657" y1="138.967" x2="387.657" y2="221.342" gradientUnits="userSpaceOnUse">
<stop offset="0.0572917" stop-color="#0092FA"/>
<stop offset="0.770833" stop-color="#0E64E4"/>
</linearGradient>
<linearGradient id="paint2_linear" x1="413.678" y1="153.15" x2="413.678" y2="193.421" gradientUnits="userSpaceOnUse">
<stop offset="0.0572917" stop-color="#0092FA"/>
<stop offset="0.770833" stop-color="#0E64E4"/>
</linearGradient>
<linearGradient id="paint3_linear" x1="354.677" y1="151.046" x2="354.677" y2="187.1" gradientUnits="userSpaceOnUse">
<stop offset="0.0572917" stop-color="#0092FA"/>
<stop offset="0.770833" stop-color="#0E64E4"/>
</linearGradient>
<linearGradient id="paint4_linear" x1="182.584" y1="56.2727" x2="182.584" y2="78.7023" gradientUnits="userSpaceOnUse">
<stop offset="0.0572917" stop-color="#0092FA"/>
<stop offset="0.770833" stop-color="#0E64E4"/>
</linearGradient>
<linearGradient id="paint5_linear" x1="305.406" y1="0" x2="305.406" y2="39.8899" gradientUnits="userSpaceOnUse">
<stop offset="0.0572917" stop-color="#0092FA"/>
<stop offset="0.770833" stop-color="#0E64E4"/>
</linearGradient>
<linearGradient id="paint6_linear" x1="305.405" y1="30.7646" x2="305.405" y2="52.368" gradientUnits="userSpaceOnUse">
<stop offset="0.0572917" stop-color="#0092FA"/>
<stop offset="0.770833" stop-color="#0E64E4"/>
</linearGradient>
<clipPath id="clip0">
<rect width="435" height="319" fill="white"/>
</clipPath>
</defs>
</svg>
